<?xml version="1.0" encoding="utf-8"?>
<!-- Generator: Adobe Illustrator 25.1.0, SVG Export Plug-In . SVG Version: 6.00 Build 0)  -->
<svg version="1.1" id="Capa_1" xmlns="http://www.w3.org/2000/svg" xmlns:xlink="http://www.w3.org/1999/xlink" x="0px" y="0px"
	 viewBox="0 0 25 25" style="enable-background:new 0 0 25 25;" xml:space="preserve">
<style type="text/css">
	.st0{fill:#F7BB38;}
	.st1{fill:#F6D372;}
	.st2{fill:#D8A030;}
	.st3{fill:#E0BD65;}
	.st4{fill:#9E4830;}
	.st5{fill:#FDDDCA;}
	.st6{fill:#EDCDBE;}
	.st7{fill:#27273D;}
	.st8{fill:#FAB3A7;}
	.st9{fill:#FFFFFF;}
	.st10{fill:#9C9C9C;}
	.st11{fill:#C41414;}
	.st12{fill:#FF1515;}
</style>
<g id="Icons">
	<g>
		<path class="st0" d="M20.9478,15.801v5.6401c-0.7782,0.6715-1.6337,1.2479-2.5484,1.7168c-0.545,0.28-1.1095,0.5202-1.689,0.719
			c-0.1636,0.0566-0.3287,0.1097-0.4953,0.1596l-0.0444,0.0131c-2.2948,0.6731-4.7307,0.7009-7.0403,0.0803
			c-0.5645-0.1524-1.1179-0.3434-1.6562-0.5716c-0.1717-0.072-0.3413-0.1483-0.509-0.2287
			c-0.0157-0.0071-0.0313-0.0141-0.0465-0.0222c-0.2403-0.1151-0.476-0.2375-0.7069-0.3671
			c-0.7238-0.405-1.407-0.8784-2.0404-1.4138l-0.0364-0.0313V15.801H20.9478z"/>
	</g>
	<g>
		<path class="st1" d="M4.84,10.2761h15.4004c0.8645,0,1.5653,0.7008,1.5653,1.5653v3.3613c0,0.3307-0.2681,0.5988-0.5988,0.5988
			H3.8741c-0.3307,0-0.5988-0.2681-0.5988-0.5988v-3.3618C3.2755,10.9768,3.9759,10.2763,4.84,10.2761z"/>
	</g>
	<g>
		<path class="st2" d="M20.9842,15.801v1.3633h-9.9436c-1.651,0.0014-3.1874,0.8445-4.0753,2.2363
			c-0.0157,0.0247-0.0313,0.0505-0.0465,0.0747c-0.4642,0.7581-0.7089,1.6302-0.7069,2.5191v0.9467
			c-0.7238-0.405-1.407-0.8784-2.0404-1.4138V15.801H20.9842z"/>
	</g>
	<g>
		<path class="st1" d="M4.8759,10.2761h15.4004c0.8645,0,1.5653,0.7008,1.5653,1.5653v3.3613
			c-0.0003,0.3301-0.2677,0.5978-0.5978,0.5983H3.9099c-0.3307,0-0.5988-0.2681-0.5988-0.5988v-3.3613
			C3.3113,10.9768,4.0118,10.2763,4.8759,10.2761z"/>
	</g>
	<g>
		<path class="st3" d="M21.8426,14.8649v0.3267c0.0003,0.3307-0.2676,0.5991-0.5983,0.5994c-0.0002,0-0.0003,0-0.0005,0H3.9104
			c-0.3307,0-0.5988-0.2681-0.5988-0.5988v-3.3618c0.0006-0.7653,0.5543-1.4179,1.3093-1.5431
			c-0.0842,0.1952-0.1275,0.4055-0.1272,0.618v3.3608c0,0.3307,0.2681,0.5988,0.5988,0.5988L21.8426,14.8649z"/>
	</g>
	<g>
		<rect x="7.3339" y="5.7408" class="st4" width="10.5278" height="1.5345"/>
	</g>
	<g>
		<path class="st5" d="M19.6431,22.4222c-0.1198,0.0788-0.2407,0.1559-0.3625,0.2313c-1.6588,1.0231-3.5286,1.6552-5.4679,1.8486
			c-0.1666,0.0168-0.3339,0.0305-0.5019,0.0409c-0.2649,0.0162-0.532,0.0242-0.8013,0.0242c-0.206,0-0.4107-0.0047-0.614-0.0141
			c-0.1772-0.0086-0.3535-0.0202-0.5282-0.0359c-2.042-0.1779-4.0118-0.8417-5.7451-1.9359
			c-0.1377-0.0868-0.2737-0.1764-0.408-0.2686c0.0682-0.3701,0.1813-0.7685,0.2111-0.9735c0.3777-2.6105,1.2194-4.9635,3.787-6.1839
			c0.0313-0.0146,0.0697-0.0298,0.1146-0.0459c0.0328-0.0116,0.0682-0.0232,0.107-0.0353c0.1515-0.0475,0.3449-0.101,0.5463-0.157
			c0.2333-0.0651,0.4772-0.1363,0.6791-0.2121s0.3535-0.1515,0.4231-0.2318c0.1848-0.2146,0.1853-0.5453,0.1671-0.8639
			c-0.0091-0.1484-0.0217-0.2949-0.0217-0.4246c0-0.0596,0-0.1151,0-0.1671c-0.0151-0.9533-0.1424-0.6675,0.5968-0.9154
			c0.0277-0.0076,0.0558-0.0132,0.0843-0.0167c0.3984-0.0591,1.8783-0.1338,2.0399,0.0167
			c0.1515,0.1404,0.1323,0.4792,0.0863,0.8473c-0.0374,0.303-0.0939,0.6276-0.0884,0.875c-0.0012,0.0867,0.0125,0.1729,0.0404,0.255
			c0.0987,0.2732,0.3048,0.4941,0.5706,0.6115c0.1944,0.0949,0.4191,0.1601,0.6615,0.2525c0.0843,0.0318,0.1707,0.0672,0.259,0.1081
			c0.0081,0.0035,0.016,0.0073,0.0237,0.0116c0.101,0.0459,0.1959,0.0944,0.2898,0.1439
			C18.6489,16.6998,19.2402,19.4365,19.6431,22.4222z"/>
	</g>
	<g>
		<path class="st5" d="M17.2775,5.4363v3.1881c0,2.3787-1.893,3.1402-3.273,4.3495c-0.805,0.72-2.0226,0.72-2.8276,0
			c-1.38-1.2093-3.273-1.9692-3.273-4.3495V5.4363c0-0.0101,0-0.0212,0-0.0318c0.0111-1.6663,0.9038-3.1053,2.2076-3.8244
			c0.0419-0.0237,0.0853-0.0459,0.1283-0.0677c0.4932-0.2502,1.0344-0.3918,1.587-0.4151c0.0566-0.003,0.1131-0.004,0.1697-0.004
			h1.1871c0.9594,0.0023,1.885,0.3548,2.6029,0.9912C15.8962,2.18,16.0009,2.2811,16.1,2.3875
			c0.7074,0.769,1.1219,1.7622,1.1709,2.8059l0,0C17.2755,5.2747,17.2775,5.355,17.2775,5.4363z"/>
	</g>
	<g>
		<path class="st6" d="M9.7737,8.6249V5.4363c0-2.2762,1.6501-4.1445,3.7516-4.3288c-0.1131-0.0106-0.2267-0.0151-0.3423-0.0151
			h-1.1861c-2.2611,0-4.0935,1.945-4.0935,4.3424v1.5784c-0.518-0.012-0.9477,0.3982-0.9597,0.9162
			C6.9317,8.4473,7.3419,8.877,7.8599,8.889c0.0145,0.0003,0.029,0.0003,0.0435,0h0.0101c0.1358,2.1712,1.9359,2.921,3.2629,4.0839
			c0.6443,0.5768,1.5747,0.7037,2.35,0.3206c-0.1733-0.0853-0.3346-0.1931-0.4797-0.3206
			C11.6662,11.7651,9.7737,11.0027,9.7737,8.6249z"/>
	</g>
	<g>
		<circle class="st5" cx="17.277" cy="7.9524" r="0.9382"/>
	</g>
	<g>
		<path class="st7" d="M9.1639,6.841c-0.0621,0-0.1224-0.0328-0.1547-0.091C8.9618,6.6647,8.9926,6.5571,9.0779,6.5098
			c0.0521-0.0289,1.2877-0.6996,2.3849,0.0059c0.0821,0.0528,0.1059,0.1621,0.0531,0.2442
			c-0.0528,0.0821-0.1621,0.106-0.2442,0.0531c-0.9215-0.5924-2.0113-0.0001-2.0222,0.0059C9.2223,6.8339,9.1929,6.841,9.1639,6.841
			z"/>
	</g>
	<g>
		<path class="st7" d="M15.9231,6.841c-0.0327,0-0.0658-0.0091-0.0954-0.0281c-0.9172-0.5897-2.011,0-2.0219,0.006
			c-0.0856,0.047-0.1929,0.0161-0.2401-0.0692c-0.0471-0.0853-0.0165-0.1926,0.0687-0.24c0.052-0.0289,1.2872-0.6995,2.3844,0.0059
			c0.0821,0.0528,0.1059,0.1621,0.0531,0.2442C16.0381,6.8124,15.9812,6.841,15.9231,6.841z"/>
	</g>
	<g>
		<ellipse class="st7" cx="14.8048" cy="7.8393" rx="0.3918" ry="0.564"/>
	</g>
	<g>
		<path class="st8" d="M12.1322,8.8905h0.8892c0.1308,0,0.2368,0.106,0.2368,0.2368v0.0429c0,0.1308-0.106,0.2368-0.2368,0.2368
			h-0.8892c-0.1308,0-0.2368-0.106-0.2368-0.2368V9.1273C11.8954,8.9966,12.0014,8.8905,12.1322,8.8905z"/>
	</g>
	<g>
		<ellipse class="st7" cx="10.2655" cy="7.8393" rx="0.3918" ry="0.564"/>
	</g>
	<g>
		<path class="st8" d="M7.9302,7.5797C7.7242,7.5722,7.5511,7.733,7.5436,7.9389C7.536,8.1448,7.6968,8.3179,7.9027,8.3255
			c0.0091,0.0003,0.0183,0.0003,0.0274,0V7.5797z"/>
	</g>
	<g>
		<path class="st8" d="M17.277,8.3255c0.2059,0.0076,0.379-0.1532,0.3866-0.3592c0.0076-0.2059-0.1532-0.379-0.3592-0.3866
			c-0.0091-0.0003-0.0183-0.0003-0.0274,0V8.3255z"/>
	</g>
	<g>
		<path class="st9" d="M11.4889,10.2761c-0.0508-0.0002-0.0921,0.0407-0.0923,0.0914c0,0.0032,0.0001,0.0064,0.0004,0.0095
			c0.0505,0.6175,0.559,1.1891,1.1795,1.1891l0,0c0.6206,0,1.13-0.5716,1.18-1.1891c0.005-0.0505-0.0319-0.0955-0.0824-0.1005
			c-0.0032-0.0003-0.0064-0.0005-0.0095-0.0004H11.4889z"/>
	</g>
	<g>
		<path class="st9" d="M13.8126,16.3615v8.1405c-0.1666,0.0168-0.3339,0.0305-0.5019,0.0409
			c-0.2649,0.0162-0.532,0.0242-0.8013,0.0242c-0.206,0-0.4107-0.0047-0.614-0.0141c-0.1772-0.0086-0.3535-0.0202-0.5282-0.0358
			v-8.1557c0.1684,0.0796,0.3457,0.1388,0.5282,0.1762c0.4664,0.1016,0.9497,0.0966,1.4138-0.0146
			C13.4809,16.4819,13.6491,16.4279,13.8126,16.3615z"/>
	</g>
	<g>
		<path class="st10" d="M11.8954,16.3605v8.1925c-0.1772-0.0086-0.3535-0.0202-0.5282-0.0358
			c-2.042-0.1779-4.0118-0.8417-5.7451-1.9359c-0.1377-0.0868-0.2737-0.1764-0.408-0.2686
			c0.0682-0.3701,0.1813-0.7685,0.2111-0.9735c0.3777-2.6105,1.2194-4.9635,3.787-6.1839c0.0313-0.0146,0.0697-0.0298,0.1146-0.0459
			c0.0328-0.0116,0.0682-0.0232,0.107-0.0353c0.1515-0.0475,0.3449-0.101,0.5463-0.157c0.2333-0.0651,0.4772-0.1363,0.6791-0.2121
			L11.3976,15.8l0,0l0.4211,0.3848C11.8678,16.23,11.8957,16.2937,11.8954,16.3605z"/>
	</g>
	<g>
		<path class="st10" d="M19.6431,22.4222c-0.1198,0.0788-0.2407,0.1559-0.3625,0.2313c-1.6588,1.0231-3.5286,1.6552-5.4679,1.8486
			c-0.1666,0.0168-0.3339,0.0305-0.5019,0.0409V16.363c0.0001-0.0665,0.0282-0.1299,0.0773-0.1747l0.4211-0.3848l0.004-0.0061
			l0.7433-1.1043c0.1944,0.0949,0.4191,0.1601,0.6615,0.2525c0.0843,0.0318,0.1707,0.0672,0.259,0.1081
			c0.0081,0.0035,0.016,0.0073,0.0237,0.0116c0.101,0.0459,0.1959,0.0944,0.2898,0.1439
			C18.6489,16.6998,19.2402,19.4365,19.6431,22.4222z"/>
	</g>
	<g>
		<path d="M11.243,13.5137l-1.173,1.0472c-0.1347,0.1196-0.147,0.3257-0.0274,0.4605c0.0075,0.0085,0.0155,0.0166,0.0239,0.0243
			c0.1974,0.1787,0.5822,0.4342,1.33,0.7574L11.243,13.5137z"/>
	</g>
	<g>
		<path d="M13.9661,13.5137l1.173,1.0472c0.1347,0.1196,0.147,0.3257,0.0274,0.4605c-0.0075,0.0085-0.0155,0.0166-0.0239,0.0243
			c-0.1979,0.1787-0.5822,0.4342-1.33,0.7574L13.9661,13.5137z"/>
	</g>
	<g>
		<path class="st11" d="M17.641,5.7428H7.548c0-2.5832,2.1475-5.3185,4.7969-5.3185h0.4999c2.6489,0,4.7969,2.7352,4.7969,5.3185
			H17.641z"/>
	</g>
	<g>
		<path class="st12" d="M13.1042,0.441c-1.1725,0.1161-2.2268,0.7619-3.0104,1.6713C9.2263,3.1197,8.6886,4.4497,8.6886,5.7428
			H7.4263c0-1.2911,0.5367-2.6211,1.4052-3.6279s2.0672-1.6905,3.3916-1.6905h0.4999C12.8503,0.4235,12.9775,0.4291,13.1042,0.441z"
			/>
	</g>
	<g>
		<path d="M18.146,6.1195H7.043l0.0086-0.0182c0.3323-0.7268,0.9868-1.2552,1.7673-1.4269c2.4661-0.55,4.9907-0.5433,7.574,0.0202
			c0.7775,0.1714,1.4285,0.6995,1.7567,1.4249H18.146z"/>
	</g>
	<g>
		<path class="st12" d="M9.1637,13.1148v10.75c0.0001,0.0871-0.0103,0.1739-0.0308,0.2585
			c-0.0006,0.0033-0.0014,0.0065-0.0025,0.0096c-0.5645-0.1524-1.1179-0.3434-1.6562-0.5716
			c-0.1717-0.072-0.3413-0.1483-0.509-0.2287V13.1148c-0.0001-0.6008,0.4824-1.0902,1.0831-1.0987H8.065
			C8.6717,12.0163,9.1635,12.5081,9.1637,13.1148z"/>
	</g>
	<g>
		<path class="st11" d="M8.2958,12.0494c-0.4846,0.1265-0.8224,0.5646-0.8215,1.0654v10.4445
			c-0.1717-0.072-0.3413-0.1483-0.509-0.2287c-0.0157-0.0071-0.0313-0.0141-0.0465-0.0222V13.1148
			c0-0.6071,0.4921-1.0992,1.0992-1.0992h0.0359C8.1355,12.0175,8.2167,12.0289,8.2958,12.0494z"/>
	</g>
	<g>
		<path class="st12" d="M18.3994,13.1148v10.0482c-0.545,0.28-1.1095,0.5202-1.689,0.719
			c-0.1636,0.0566-0.3287,0.1097-0.4953,0.1596c-0.0005-0.0032-0.0005-0.0064,0-0.0096c-0.0086-0.0546-0.0128-0.1098-0.0126-0.1651
			v-10.752c-0.0001-0.6008,0.4824-1.0902,1.0831-1.0987h0.0162C17.908,12.0169,18.3992,12.5085,18.3994,13.1148z"/>
	</g>
	<g>
		<path class="st11" d="M16.7099,23.8699c-0.0003,0.003-0.0003,0.0061,0,0.0091c-0.1636,0.0566-0.3287,0.1097-0.4953,0.1596
			l-0.0444,0.0131v-0.0091c-0.0098-0.0591-0.0147-0.1189-0.0146-0.1787v-10.749c-0.0011-0.6071,0.4901-1.1001,1.0972-1.1013
			c0.0007,0,0.0013,0,0.002,0h0.0359c0.0817,0.0024,0.1629,0.0143,0.2419,0.0353c-0.4852,0.1262-0.8235,0.5646-0.8225,1.0659
			V23.8699z"/>
	</g>
	<g>
		<path d="M13.5893,16.8654h0.0944v0.515h0.1553v0.0858h-0.2498V16.8654z"/>
		<path d="M13.9112,17.4354c-0.0246-0.0263-0.0369-0.0635-0.0369-0.1116v-0.3159c0-0.0481,0.0123-0.0853,0.0369-0.1116
			c0.0246-0.0263,0.0601-0.0395,0.1065-0.0395c0.0464,0,0.0818,0.0132,0.1064,0.0395s0.0369,0.0635,0.0369,0.1116v0.3159
			c0,0.0481-0.0123,0.0853-0.0369,0.1116c-0.0246,0.0263-0.0601,0.0395-0.1064,0.0395
			C13.9713,17.4749,13.9358,17.4617,13.9112,17.4354z M14.0666,17.3298v-0.3279c0-0.0394-0.0163-0.0592-0.0489-0.0592
			c-0.0326,0-0.049,0.0198-0.049,0.0592v0.3279c0,0.0395,0.0163,0.0592,0.049,0.0592
			C14.0503,17.389,14.0666,17.3693,14.0666,17.3298z"/>
		<path d="M14.2434,17.4358c-0.0235-0.026-0.0352-0.0634-0.0352-0.112v-0.0343h0.0893v0.0412c0,0.0389,0.0163,0.0583,0.049,0.0583
			c0.016,0,0.0282-0.0047,0.0365-0.0142c0.0083-0.0094,0.0124-0.0248,0.0124-0.0459c0-0.0252-0.0057-0.0473-0.0172-0.0665
			c-0.0115-0.0192-0.0326-0.0422-0.0635-0.0691c-0.039-0.0343-0.0661-0.0653-0.0816-0.0931
			c-0.0155-0.0277-0.0232-0.0591-0.0232-0.094c0-0.0475,0.012-0.0842,0.036-0.1103c0.024-0.026,0.0589-0.0391,0.1047-0.0391
			c0.0452,0,0.0794,0.013,0.1026,0.0391c0.0232,0.0261,0.0348,0.0634,0.0348,0.112v0.0249h-0.0893v-0.0309
			c0-0.0206-0.004-0.0356-0.012-0.0451c-0.008-0.0094-0.0198-0.0142-0.0352-0.0142c-0.0315,0-0.0472,0.0192-0.0472,0.0575
			c0,0.0218,0.0059,0.0421,0.0176,0.0609c0.0117,0.0189,0.033,0.0418,0.0639,0.0687c0.0395,0.0343,0.0667,0.0655,0.0816,0.0936
			c0.0149,0.028,0.0223,0.0609,0.0223,0.0987c0,0.0493-0.0122,0.087-0.0365,0.1133c-0.0243,0.0263-0.0597,0.0395-0.106,0.0395
			C14.3015,17.4749,14.2668,17.4618,14.2434,17.4358z"/>
		<path class="st12" d="M13.5893,17.5723h0.1391c0.0469,0,0.0821,0.0126,0.1056,0.0378c0.0235,0.0252,0.0352,0.0621,0.0352,0.1108
			V17.78c0,0.0487-0.0117,0.0856-0.0352,0.1108c-0.0235,0.0252-0.0587,0.0378-0.1056,0.0378h-0.0446v0.2446h-0.0944V17.5723z
			 M13.7284,17.8427c0.0154,0,0.027-0.0043,0.0348-0.0129c0.0077-0.0086,0.0116-0.0232,0.0116-0.0438v-0.0713
			c0-0.0206-0.0038-0.0352-0.0116-0.0438c-0.0077-0.0086-0.0193-0.0129-0.0348-0.0129h-0.0446v0.1846H13.7284z"/>
		<path class="st12" d="M13.9206,17.5723h0.2575v0.0858h-0.1631v0.1588h0.1296v0.0858h-0.1296v0.1846h0.1631v0.0858h-0.2575V17.5723
			z"/>
		<path class="st12" d="M14.2322,17.5723h0.1442c0.0469,0,0.0821,0.0126,0.1056,0.0378c0.0235,0.0252,0.0352,0.0621,0.0352,0.1108
			v0.3038c0,0.0487-0.0117,0.0856-0.0352,0.1108c-0.0235,0.0252-0.0586,0.0378-0.1056,0.0378h-0.1442V17.5723z M14.3747,18.0873
			c0.0155,0,0.0274-0.0046,0.0357-0.0137c0.0083-0.0092,0.0124-0.0241,0.0124-0.0447v-0.3124c0-0.0206-0.0041-0.0355-0.0124-0.0446
			c-0.0083-0.0092-0.0202-0.0138-0.0357-0.0138h-0.048v0.4292H14.3747z"/>
		<path class="st12" d="M14.5807,17.5723h0.0944v0.6009h-0.0944V17.5723z"/>
		<path class="st12" d="M14.7455,17.5723h0.1442c0.0469,0,0.0821,0.0126,0.1056,0.0378c0.0235,0.0252,0.0352,0.0621,0.0352,0.1108
			v0.3038c0,0.0487-0.0117,0.0856-0.0352,0.1108c-0.0235,0.0252-0.0586,0.0378-0.1056,0.0378h-0.1442V17.5723z M14.888,18.0873
			c0.0155,0,0.0274-0.0046,0.0357-0.0137c0.0083-0.0092,0.0124-0.0241,0.0124-0.0447v-0.3124c0-0.0206-0.0041-0.0355-0.0124-0.0446
			c-0.0083-0.0092-0.0202-0.0138-0.0357-0.0138H14.84v0.4292H14.888z"/>
		<path class="st12" d="M15.124,18.1423c-0.0246-0.0263-0.0369-0.0635-0.0369-0.1116v-0.3159c0-0.0481,0.0123-0.0853,0.0369-0.1116
			s0.0601-0.0395,0.1065-0.0395s0.0818,0.0132,0.1064,0.0395c0.0246,0.0263,0.0369,0.0635,0.0369,0.1116v0.3159
			c0,0.0481-0.0123,0.0853-0.0369,0.1116c-0.0246,0.0263-0.0601,0.0395-0.1064,0.0395S15.1486,18.1686,15.124,18.1423z
			 M15.2794,18.0367v-0.3279c0-0.0394-0.0163-0.0592-0.0489-0.0592c-0.0326,0-0.049,0.0198-0.049,0.0592v0.3279
			c0,0.0395,0.0163,0.0592,0.049,0.0592C15.2631,18.0959,15.2794,18.0762,15.2794,18.0367z"/>
		<path class="st12" d="M15.4562,18.1427c-0.0235-0.026-0.0352-0.0634-0.0352-0.112v-0.0343h0.0893v0.0412
			c0,0.0389,0.0163,0.0583,0.049,0.0583c0.016,0,0.0282-0.0047,0.0365-0.0142c0.0083-0.0094,0.0124-0.0248,0.0124-0.0459
			c0-0.0252-0.0057-0.0473-0.0172-0.0665c-0.0115-0.0192-0.0326-0.0422-0.0635-0.0691c-0.039-0.0343-0.0661-0.0653-0.0816-0.0931
			c-0.0155-0.0277-0.0232-0.0591-0.0232-0.094c0-0.0475,0.012-0.0842,0.036-0.1103c0.024-0.026,0.0589-0.0391,0.1047-0.0391
			c0.0452,0,0.0794,0.013,0.1026,0.0391c0.0232,0.0261,0.0348,0.0634,0.0348,0.112v0.0249h-0.0893v-0.0309
			c0-0.0206-0.004-0.0356-0.012-0.0451c-0.008-0.0094-0.0198-0.0142-0.0352-0.0142c-0.0315,0-0.0472,0.0192-0.0472,0.0575
			c0,0.0218,0.0059,0.0421,0.0176,0.0609c0.0117,0.0189,0.033,0.0418,0.0639,0.0687c0.0395,0.0343,0.0667,0.0655,0.0816,0.0936
			c0.0149,0.028,0.0223,0.0609,0.0223,0.0987c0,0.0493-0.0122,0.087-0.0365,0.1133c-0.0243,0.0263-0.0597,0.0395-0.106,0.0395
			C15.5143,18.1818,15.4797,18.1688,15.4562,18.1427z"/>
	</g>
</g>
<g id="cuerpo">
	<g>
		<g>
			<polygon points="12.4821,1.5181 11.8819,2.5132 12.4821,2.9004 12.3083,3.8241 12.5294,3.8557 12.7506,2.7659 12.3873,2.5289 
				12.7506,1.93 13.4297,2.2604 13.635,2.1499 12.6943,1.5181 			"/>
		</g>
	</g>
</g>
<g id="cabeza">
	<g>
		<g>
			<circle cx="12.8216" cy="1.0996" r="0.2843"/>
		</g>
		<g>
			<path d="M12.8216,1.3918c-0.1611,0-0.2922-0.1311-0.2922-0.2922s0.1311-0.2922,0.2922-0.2922
				c0.1611,0,0.2922,0.1311,0.2922,0.2922S12.9828,1.3918,12.8216,1.3918z M12.8216,0.8232c-0.1524,0-0.2764,0.124-0.2764,0.2764
				s0.124,0.2764,0.2764,0.2764c0.1524,0,0.2764-0.124,0.2764-0.2764S12.974,0.8232,12.8216,0.8232z"/>
		</g>
	</g>
</g>
<g id="gorro">
	<g>
		<g>
			<path class="st12" d="M13.1059,1.068h0.2091l-0.0828-0.1264h-0.1264c0,0-0.3001-0.3001-0.5528,0.0158c0,0-0.0474,0.06,0,0.0932
				C12.6005,1.0838,12.7901,1.1627,13.1059,1.068z"/>
		</g>
		<g>
			<path class="st12" d="M12.8213,1.1205c-0.1379,0-0.2321-0.0351-0.2727-0.0634c-0.0136-0.0095-0.0216-0.0219-0.0238-0.0369
				c-0.0048-0.033,0.0211-0.0662,0.0221-0.0677c0.0739-0.0924,0.1593-0.1419,0.2536-0.1471
				c0.1585-0.0088,0.289,0.1095,0.3086,0.1284h0.1274l0.0931,0.1421h-0.2226C12.9981,1.1084,12.9022,1.1205,12.8213,1.1205z
				 M12.817,0.8207c-0.0052,0-0.0105,0.0001-0.0157,0.0004c-0.0896,0.005-0.171,0.0525-0.242,0.1412
				c-0.0002,0.0002-0.0228,0.0294-0.0189,0.0556c0.0016,0.0106,0.0072,0.0192,0.0172,0.0262
				c0.0623,0.0436,0.2565,0.1031,0.546,0.0163l0.0023-0.0003h0.1945L13.228,0.9495h-0.1254l-0.0023-0.0023
				C13.099,0.9459,12.9718,0.8207,12.817,0.8207z"/>
		</g>
	</g>
</g>
<g id="llanta_delantera">
	<g>
		<g>
			<path d="M13.5719,4.0294c-0.3832,0-0.695-0.3118-0.695-0.695s0.3118-0.695,0.695-0.695s0.695,0.3118,0.695,0.695
				S13.9551,4.0294,13.5719,4.0294z M13.5719,2.8606c-0.2613,0-0.4738,0.2126-0.4738,0.4738s0.2126,0.4738,0.4738,0.4738
				s0.4738-0.2126,0.4738-0.4738S13.8331,2.8606,13.5719,2.8606z"/>
			<path d="M13.5719,4.0333c-0.3854,0-0.6989-0.3135-0.6989-0.6989c0-0.3853,0.3135-0.6988,0.6989-0.6988
				c0.3853,0,0.6989,0.3135,0.6989,0.6988C14.2707,3.7198,13.9572,4.0333,13.5719,4.0333z M13.5719,2.6434
				c-0.381,0-0.691,0.31-0.691,0.691s0.31,0.6911,0.691,0.6911c0.381,0,0.691-0.31,0.691-0.6911S13.9529,2.6434,13.5719,2.6434z
				 M13.5719,3.8122c-0.2634,0-0.4777-0.2143-0.4777-0.4777c0-0.2634,0.2143-0.4777,0.4777-0.4777
				c0.2634,0,0.4777,0.2143,0.4777,0.4777C14.0496,3.5979,13.8353,3.8122,13.5719,3.8122z M13.5719,2.8645
				c-0.2591,0-0.4699,0.2108-0.4699,0.4699s0.2108,0.4699,0.4699,0.4699s0.4699-0.2108,0.4699-0.4699S13.831,2.8645,13.5719,2.8645z
				"/>
		</g>
	</g>
</g>
<g id="llanta_delantera_1_">
	<g>
		<g>
			<path d="M11.5344,4.0294c-0.3832,0-0.695-0.3118-0.695-0.695s0.3118-0.695,0.695-0.695c0.3832,0,0.695,0.3118,0.695,0.695
				S11.9176,4.0294,11.5344,4.0294z M11.5344,2.8606c-0.2613,0-0.4738,0.2126-0.4738,0.4738s0.2126,0.4738,0.4738,0.4738
				c0.2613,0,0.4738-0.2126,0.4738-0.4738S11.7957,2.8606,11.5344,2.8606z"/>
			<path d="M11.5344,4.0333c-0.3853,0-0.6989-0.3135-0.6989-0.6989c0-0.3853,0.3135-0.6988,0.6989-0.6988
				s0.6989,0.3135,0.6989,0.6988C12.2333,3.7198,11.9197,4.0333,11.5344,4.0333z M11.5344,2.6434c-0.381,0-0.691,0.31-0.691,0.691
				s0.31,0.6911,0.691,0.6911c0.381,0,0.691-0.31,0.691-0.6911S11.9154,2.6434,11.5344,2.6434z M11.5344,3.8122
				c-0.2634,0-0.4777-0.2143-0.4777-0.4777c0-0.2634,0.2143-0.4777,0.4777-0.4777s0.4777,0.2143,0.4777,0.4777
				C12.0121,3.5979,11.7978,3.8122,11.5344,3.8122z M11.5344,2.8645c-0.2591,0-0.4699,0.2108-0.4699,0.4699
				s0.2108,0.4699,0.4699,0.4699s0.4699-0.2108,0.4699-0.4699S11.7935,2.8645,11.5344,2.8645z"/>
		</g>
	</g>
</g>
<g id="rect-1">
	<g>
		<g>
			<rect x="11.108" y="2.4184" width="0.695" height="0.1106"/>
		</g>
	</g>
</g>
<g id="rect-2">
	<g>
		<g>
			<rect x="11.108" y="2.2289" width="0.695" height="0.1106"/>
		</g>
	</g>
</g>
<g id="rect-3">
	<g>
		<g>
			<rect x="11.108" y="2.0393" width="0.695" height="0.1106"/>
		</g>
	</g>
</g>
</svg>
