<?xml version="1.0" encoding="utf-8"?>
<!-- Generator: Adobe Illustrator 25.1.0, SVG Export Plug-In . SVG Version: 6.00 Build 0)  -->
<svg version="1.1" id="Capa_1" xmlns="http://www.w3.org/2000/svg" xmlns:xlink="http://www.w3.org/1999/xlink" x="0px" y="0px"
	 viewBox="0 0 108 65" style="enable-background:new 0 0 108 65;" xml:space="preserve">
<style type="text/css">
	.st0{fill:none;}
	.st1{fill:#FF0000;}
</style>
<g>
	<path class="st0" d="M83.4,38c-1.6,0-2.4,1-2.4,3v16.4c0,2,0.8,3,2.4,3c1.6,0,2.4-1,2.4-3V41C85.9,39,85.1,38,83.4,38z"/>
	<circle class="st0" cx="65.3" cy="25.6" r="4.4"/>
	<path class="st0" d="M66.3,38.5h-2.4v21.5h2.4c0.8,0,1.4-0.2,1.8-0.7c0.4-0.5,0.6-1.2,0.6-2.2V41.4c0-1-0.2-1.8-0.6-2.2
		C67.7,38.7,67.1,38.5,66.3,38.5z"/>
	<path class="st0" d="M25.2,24.1V7.7c0-2-0.8-3-2.4-3s-2.4,1-2.4,3v16.4c0,2,0.8,3,2.4,3S25.2,26,25.2,24.1z"/>
	<path class="st0" d="M40.6,38.5h-2.4v21.5h2.4c0.8,0,1.4-0.2,1.8-0.7C42.8,58.8,43,58,43,57V41.4c0-1-0.2-1.8-0.6-2.2
		C42,38.7,41.4,38.5,40.6,38.5z"/>
	<circle class="st0" cx="84.3" cy="25.6" r="4.4"/>
	<path class="st0" d="M8.3,38.5H6.1v9.2h2.2c0.8,0,1.4-0.2,1.7-0.6c0.4-0.4,0.6-1.2,0.6-2.2v-3.6c0-1-0.2-1.8-0.6-2.2
		C9.7,38.7,9.1,38.5,8.3,38.5z"/>
	<polygon points="13.9,26.6 6.1,26.6 6.1,0.8 1.4,0.8 1.4,30.9 13.9,30.9 	"/>
	<path d="M28.1,29.3c1.2-1.3,1.8-3.2,1.8-5.6V8c0-2.4-0.6-4.3-1.8-5.6c-1.2-1.3-3-2-5.3-2s-4.1,0.7-5.3,2c-1.2,1.3-1.8,3.2-1.8,5.6
		v15.8c0,2.4,0.6,4.3,1.8,5.6c1.2,1.3,3,2,5.3,2S26.9,30.7,28.1,29.3z M20.3,24.1V7.7c0-2,0.8-3,2.4-3s2.4,1,2.4,3v16.4
		c0,2-0.8,3-2.4,3S20.3,26,20.3,24.1z"/>
	<path d="M39.3,31.3c2.3,0,4.1-0.7,5.3-2c1.2-1.3,1.8-3.2,1.8-5.7c0-1.9-0.4-3.5-1.1-4.9c-0.7-1.4-2.1-3-4.1-4.7
		c-1.5-1.3-2.6-2.5-3.2-3.4c-0.6-0.9-0.9-2-0.9-3c0-1.9,0.8-2.9,2.4-2.9c0.8,0,1.4,0.2,1.8,0.7c0.4,0.5,0.6,1.2,0.6,2.3v1.5h4.5V8
		c0-2.4-0.6-4.3-1.7-5.6c-1.2-1.3-2.9-2-5.1-2c-2.3,0-4,0.7-5.2,2c-1.2,1.3-1.8,3.1-1.8,5.5c0,1.7,0.4,3.3,1.2,4.7
		c0.8,1.4,2.1,2.9,4.1,4.7c1.5,1.3,2.6,2.5,3.2,3.5c0.6,1,0.9,2.1,0.9,3.3c0,1.1-0.2,1.8-0.6,2.3c-0.4,0.5-1,0.7-1.8,0.7
		c-1.6,0-2.4-1-2.4-2.9V22h-4.5v1.7c0,2.4,0.6,4.3,1.8,5.6C35.2,30.7,37,31.3,39.3,31.3z"/>
	<path class="st1" d="M8.3,34.2h-7v30.1h4.7V52h2.2c2.3,0,4.1-0.6,5.3-1.9c1.2-1.3,1.8-3.1,1.8-5.5v-3c0-2.4-0.6-4.3-1.8-5.5
		C12.4,34.8,10.7,34.2,8.3,34.2z M10.6,44.9c0,1-0.2,1.8-0.6,2.2c-0.4,0.4-1,0.6-1.7,0.6H6.1v-9.2h2.2c0.8,0,1.4,0.2,1.7,0.6
		c0.4,0.4,0.6,1.2,0.6,2.2V44.9z"/>
	<polygon class="st1" points="17.9,64.2 30.8,64.2 30.8,59.9 22.7,59.9 22.7,50.7 29.1,50.7 29.1,46.4 22.7,46.4 22.7,38.5 
		30.8,38.5 30.8,34.2 17.9,34.2 	"/>
	<path class="st1" d="M40.7,34.2h-7.2v30.1h7.2c2.3,0,4.1-0.6,5.3-1.9c1.2-1.3,1.8-3.1,1.8-5.5V41.6c0-2.4-0.6-4.3-1.8-5.5
		C44.8,34.8,43.1,34.2,40.7,34.2z M43,57c0,1-0.2,1.8-0.6,2.2c-0.4,0.5-1,0.7-1.8,0.7h-2.4V38.5h2.4c0.8,0,1.4,0.2,1.8,0.7
		c0.4,0.5,0.6,1.2,0.6,2.2V57z"/>
	<rect x="50.9" y="34.2" class="st1" width="4.7" height="30.1"/>
	<path class="st1" d="M66.4,34.2h-7.2v30.1h7.2c2.3,0,4.1-0.6,5.3-1.9s1.8-3.1,1.8-5.5V41.6c0-2.4-0.6-4.3-1.8-5.5
		C70.5,34.8,68.7,34.2,66.4,34.2z M68.7,57c0,1-0.2,1.8-0.6,2.2c-0.4,0.5-1,0.7-1.8,0.7h-2.4V38.5h2.4c0.8,0,1.4,0.2,1.8,0.7
		c0.4,0.5,0.6,1.2,0.6,2.2V57z"/>
	<path class="st1" d="M83.4,33.7c-2.3,0-4.1,0.7-5.3,2c-1.2,1.3-1.8,3.2-1.8,5.6v15.8c0,2.4,0.6,4.3,1.8,5.6c1.2,1.3,3,2,5.3,2
		s4.1-0.7,5.3-2c1.2-1.3,1.8-3.2,1.8-5.6V41.3c0-2.4-0.6-4.3-1.8-5.6C87.5,34.4,85.8,33.7,83.4,33.7z M85.9,57.4c0,2-0.8,3-2.4,3
		c-1.6,0-2.4-1-2.4-3V41c0-2,0.8-3,2.4-3c1.6,0,2.4,1,2.4,3V57.4z"/>
	<path class="st1" d="M105.9,52.1c-0.7-1.4-2.1-3-4.1-4.7c-1.5-1.3-2.6-2.5-3.2-3.4c-0.6-0.9-0.9-2-0.9-3c0-1.9,0.8-2.9,2.4-2.9
		c0.8,0,1.4,0.2,1.8,0.7c0.4,0.5,0.6,1.2,0.6,2.3v1.5h4.5v-1.2c0-2.4-0.6-4.3-1.7-5.6c-1.2-1.3-2.9-2-5.1-2c-2.3,0-4,0.7-5.2,2
		c-1.2,1.3-1.8,3.1-1.8,5.5c0,1.7,0.4,3.3,1.2,4.7c0.8,1.4,2.1,2.9,4.1,4.7c1.5,1.3,2.6,2.5,3.2,3.5c0.6,1,0.9,2.1,0.9,3.3
		c0,1.1-0.2,1.8-0.6,2.3s-1,0.7-1.8,0.7c-1.6,0-2.4-1-2.4-2.9v-2.1H93v1.7c0,2.4,0.6,4.3,1.8,5.6c1.2,1.3,2.9,2,5.2,2
		c2.3,0,4.1-0.7,5.3-2c1.2-1.3,1.8-3.2,1.8-5.7C107.1,55.1,106.7,53.5,105.9,52.1z"/>
	<polygon points="73.3,18.1 76.6,12.5 83,15.6 84.9,14.6 76.1,8.7 74.1,8.7 68.5,17.9 74.1,21.6 72.5,30.2 74.6,30.5 76.6,20.3 	"/>
	<path d="M77.3,4.9c-1.3,0-2.2-0.3-2.5-0.6c-0.1,0-0.1-0.1-0.1-0.1c0,0.2-0.1,0.3-0.1,0.5c0,1.5,1.2,2.7,2.7,2.7
		c1.5,0,2.7-1.2,2.7-2.7c0-0.1,0-0.1,0-0.2h0C79,4.8,78.1,4.9,77.3,4.9z"/>
	<path class="st1" d="M74.8,4.4c0.4,0.3,1.3,0.6,2.5,0.6c0.8,0,1.7-0.1,2.7-0.4h0h2l-0.9-1.3H80C79.8,3,78.6,1.9,77.1,2
		c-0.9,0-1.7,0.5-2.4,1.4c0,0-0.3,0.3-0.2,0.6c0,0.1,0,0.2,0.1,0.2C74.7,4.3,74.7,4.3,74.8,4.4z"/>
	<path d="M84.3,19.1c-3.6,0-6.5,2.9-6.5,6.5s2.9,6.5,6.5,6.5s6.5-2.9,6.5-6.5S87.9,19.1,84.3,19.1z M84.3,30c-2.4,0-4.4-2-4.4-4.4
		c0-2.4,2-4.4,4.4-4.4s4.4,2,4.4,4.4C88.7,28,86.7,30,84.3,30z"/>
	<path d="M65.3,32.1c3.6,0,6.5-2.9,6.5-6.5s-2.9-6.5-6.5-6.5s-6.5,2.9-6.5,6.5S61.7,32.1,65.3,32.1z M65.3,21.2c2.4,0,4.4,2,4.4,4.4
		c0,2.4-2,4.4-4.4,4.4s-4.4-2-4.4-4.4C60.9,23.2,62.9,21.2,65.3,21.2z"/>
	<rect x="61.3" y="17.1" width="6.5" height="1"/>
	<rect x="61.3" y="15.3" width="6.5" height="1"/>
	<rect x="61.3" y="13.5" width="6.5" height="1"/>
</g>
</svg>
