<?xml version="1.0" encoding="utf-8"?>
<!-- Generator: Adobe Illustrator 25.1.0, SVG Export Plug-In . SVG Version: 6.00 Build 0)  -->
<svg version="1.1" id="Capa_1" xmlns="http://www.w3.org/2000/svg" xmlns:xlink="http://www.w3.org/1999/xlink" x="0px" y="0px"
	 viewBox="0 0 80 30" style="enable-background:new 0 0 80 30;" xml:space="preserve">
<style type="text/css">
	.st0{fill:#FF1515;}
</style>
<g>
	<path d="M32,0.6H34V12h3.4v1.9H32V0.6z"/>
	<path d="M39.1,13.2c-0.5-0.6-0.8-1.4-0.8-2.5v-7c0-1.1,0.3-1.9,0.8-2.5c0.5-0.6,1.3-0.9,2.4-0.9s1.8,0.3,2.4,0.9
		c0.5,0.6,0.8,1.4,0.8,2.5v7c0,1.1-0.3,1.9-0.8,2.5c-0.5,0.6-1.3,0.9-2.4,0.9S39.6,13.8,39.1,13.2z M42.5,10.8V3.6
		c0-0.9-0.4-1.3-1.1-1.3s-1.1,0.4-1.1,1.3v7.3c0,0.9,0.4,1.3,1.1,1.3S42.5,11.7,42.5,10.8z"/>
	<path d="M46.4,13.2c-0.5-0.6-0.8-1.4-0.8-2.5V10h2v0.9c0,0.9,0.4,1.3,1.1,1.3c0.4,0,0.6-0.1,0.8-0.3s0.3-0.5,0.3-1
		c0-0.6-0.1-1-0.4-1.5c-0.3-0.4-0.7-0.9-1.4-1.5c-0.9-0.8-1.5-1.4-1.8-2.1c-0.3-0.6-0.5-1.3-0.5-2.1c0-1.1,0.3-1.9,0.8-2.4
		c0.5-0.6,1.3-0.9,2.3-0.9c1,0,1.8,0.3,2.3,0.9c0.5,0.6,0.8,1.4,0.8,2.5v0.6h-2V3.6c0-0.5-0.1-0.8-0.3-1c-0.2-0.2-0.4-0.3-0.8-0.3
		c-0.7,0-1,0.4-1,1.3c0,0.5,0.1,0.9,0.4,1.3c0.3,0.4,0.7,0.9,1.4,1.5c0.9,0.8,1.5,1.5,1.8,2.1c0.3,0.6,0.5,1.3,0.5,2.2
		c0,1.1-0.3,1.9-0.8,2.5c-0.5,0.6-1.3,0.9-2.3,0.9C47.7,14.1,47,13.8,46.4,13.2z"/>
	<path class="st0" d="M32,15.6H35c1,0,1.8,0.3,2.3,0.8c0.5,0.6,0.8,1.4,0.8,2.5v1.3c0,1.1-0.3,1.9-0.8,2.5s-1.3,0.8-2.3,0.8h-1v5.4
		H32V15.6z M35,21.6c0.3,0,0.6-0.1,0.8-0.3c0.2-0.2,0.3-0.5,0.3-1v-1.6c0-0.5-0.1-0.8-0.3-1c-0.2-0.2-0.4-0.3-0.8-0.3h-1v4.1H35z"/>
	<path class="st0" d="M39.3,15.6H45v1.9h-3.6V21h2.9v1.9h-2.9V27H45v1.9h-5.7V15.6z"/>
	<path class="st0" d="M46.2,15.6h3.2c1,0,1.8,0.3,2.3,0.8c0.5,0.6,0.8,1.4,0.8,2.5v6.7c0,1.1-0.3,1.9-0.8,2.5s-1.3,0.8-2.3,0.8h-3.2
		V15.6z M49.3,27c0.3,0,0.6-0.1,0.8-0.3s0.3-0.5,0.3-1v-6.9c0-0.5-0.1-0.8-0.3-1s-0.4-0.3-0.8-0.3h-1.1V27H49.3z"/>
	<path class="st0" d="M53.9,15.6H56v13.3h-2.1V15.6z"/>
	<path class="st0" d="M57.5,15.6h3.2c1,0,1.8,0.3,2.3,0.8c0.5,0.6,0.8,1.4,0.8,2.5v6.7c0,1.1-0.3,1.9-0.8,2.5s-1.3,0.8-2.3,0.8h-3.2
		V15.6z M60.7,27c0.3,0,0.6-0.1,0.8-0.3s0.3-0.5,0.3-1v-6.9c0-0.5-0.1-0.8-0.3-1s-0.4-0.3-0.8-0.3h-1.1V27H60.7z"/>
	<path class="st0" d="M65.9,28.2c-0.5-0.6-0.8-1.4-0.8-2.5v-7c0-1.1,0.3-1.9,0.8-2.5c0.5-0.6,1.3-0.9,2.4-0.9c1,0,1.8,0.3,2.4,0.9
		c0.5,0.6,0.8,1.4,0.8,2.5v7c0,1.1-0.3,1.9-0.8,2.5c-0.5,0.6-1.3,0.9-2.4,0.9C67.3,29.1,66.5,28.8,65.9,28.2z M69.4,25.8v-7.3
		c0-0.9-0.4-1.3-1.1-1.3c-0.7,0-1.1,0.4-1.1,1.3v7.3c0,0.9,0.4,1.3,1.1,1.3C69,27.2,69.4,26.7,69.4,25.8z"/>
	<path class="st0" d="M73.3,28.2c-0.5-0.6-0.8-1.4-0.8-2.5V25h2v0.9c0,0.9,0.4,1.3,1.1,1.3c0.4,0,0.6-0.1,0.8-0.3s0.3-0.5,0.3-1
		c0-0.6-0.1-1-0.4-1.5c-0.3-0.4-0.7-0.9-1.4-1.5c-0.9-0.8-1.5-1.4-1.8-2.1c-0.3-0.6-0.5-1.3-0.5-2.1c0-1.1,0.3-1.9,0.8-2.4
		c0.5-0.6,1.3-0.9,2.3-0.9c1,0,1.8,0.3,2.3,0.9c0.5,0.6,0.8,1.4,0.8,2.5v0.6h-2v-0.7c0-0.5-0.1-0.8-0.3-1c-0.2-0.2-0.4-0.3-0.8-0.3
		c-0.7,0-1,0.4-1,1.3c0,0.5,0.1,0.9,0.4,1.3c0.3,0.4,0.7,0.9,1.4,1.5c0.9,0.8,1.5,1.5,1.8,2.1c0.3,0.6,0.5,1.3,0.5,2.2
		c0,1.1-0.3,1.9-0.8,2.5c-0.5,0.6-1.3,0.9-2.3,0.9C74.6,29.1,73.8,28.8,73.3,28.2z"/>
</g>
<g id="cuerpo">
	<g>
		<g>
			<g>
				<polygon points="13.6,9.7 9,17.3 13.6,20.2 12.3,27.3 13.9,27.5 15.6,19.2 12.9,17.4 15.6,12.8 20.8,15.4 22.4,14.5 15.2,9.7 
									"/>
			</g>
		</g>
	</g>
</g>
<g id="cabeza">
	<g>
		<g>
			<g>
				<circle cx="16.2" cy="6.5" r="2.2"/>
			</g>
		</g>
		<g>
			<g>
				<path d="M16.2,8.7c-1.2,0-2.2-1-2.2-2.2s1-2.2,2.2-2.2c1.2,0,2.2,1,2.2,2.2S17.4,8.7,16.2,8.7z M16.2,4.4
					c-1.2,0-2.1,0.9-2.1,2.1s0.9,2.1,2.1,2.1c1.2,0,2.1-0.9,2.1-2.1S17.3,4.4,16.2,4.4z"/>
			</g>
		</g>
	</g>
</g>
<g id="gorro">
	<g>
		<g>
			<g>
				<path class="st0" d="M18.3,6.3h1.6l-0.6-1h-1c0,0-2.3-2.3-4.2,0.1c0,0-0.4,0.5,0,0.7S15.9,7,18.3,6.3z"/>
			</g>
		</g>
		<g>
			<g>
				<path class="st0" d="M16.2,6.7c-1,0-1.8-0.3-2.1-0.5C14,6.1,13.9,6,13.9,5.9c0-0.3,0.2-0.5,0.2-0.5c0.6-0.7,1.2-1.1,1.9-1.1
					c1.2-0.1,2.2,0.8,2.4,1h1L20,6.3h-1.7C17.5,6.6,16.8,6.7,16.2,6.7z M16.1,4.4c0,0-0.1,0-0.1,0c-0.7,0-1.3,0.4-1.8,1.1
					c0,0-0.2,0.2-0.1,0.4C14,6,14.1,6,14.2,6.1c0.5,0.3,2,0.8,4.2,0.1l0,0h1.5l-0.6-0.8h-1l0,0C18.3,5.4,17.3,4.4,16.1,4.4z"/>
			</g>
		</g>
	</g>
</g>
<g id="llanta_delantera">
	<g>
		<g>
			<g>
				<path d="M21.9,28.8c-2.9,0-5.3-2.4-5.3-5.3s2.4-5.3,5.3-5.3s5.3,2.4,5.3,5.3S24.8,28.8,21.9,28.8z M21.9,19.9
					c-2,0-3.6,1.6-3.6,3.6s1.6,3.6,3.6,3.6s3.6-1.6,3.6-3.6S23.9,19.9,21.9,19.9z"/>
			</g>
			<g>
				<path d="M21.9,28.9c-2.9,0-5.3-2.4-5.3-5.3c0-2.9,2.4-5.3,5.3-5.3c2.9,0,5.3,2.4,5.3,5.3C27.2,26.5,24.8,28.9,21.9,28.9z
					 M21.9,18.3c-2.9,0-5.3,2.4-5.3,5.3s2.4,5.3,5.3,5.3s5.3-2.4,5.3-5.3S24.8,18.3,21.9,18.3z M21.9,27.2c-2,0-3.6-1.6-3.6-3.6
					c0-2,1.6-3.6,3.6-3.6c2,0,3.6,1.6,3.6,3.6C25.5,25.5,23.9,27.2,21.9,27.2z M21.9,20c-2,0-3.6,1.6-3.6,3.6s1.6,3.6,3.6,3.6
					s3.6-1.6,3.6-3.6S23.9,20,21.9,20z"/>
			</g>
		</g>
	</g>
</g>
<g id="llanta_delantera_1_">
	<g>
		<g>
			<g>
				<path d="M6.4,28.8c-2.9,0-5.3-2.4-5.3-5.3s2.4-5.3,5.3-5.3s5.3,2.4,5.3,5.3S9.3,28.8,6.4,28.8z M6.4,19.9c-2,0-3.6,1.6-3.6,3.6
					s1.6,3.6,3.6,3.6s3.6-1.6,3.6-3.6S8.4,19.9,6.4,19.9z"/>
			</g>
			<g>
				<path d="M6.4,28.9c-2.9,0-5.3-2.4-5.3-5.3c0-2.9,2.4-5.3,5.3-5.3s5.3,2.4,5.3,5.3C11.7,26.5,9.3,28.9,6.4,28.9z M6.4,18.3
					c-2.9,0-5.3,2.4-5.3,5.3s2.4,5.3,5.3,5.3s5.3-2.4,5.3-5.3S9.3,18.3,6.4,18.3z M6.4,27.2c-2,0-3.6-1.6-3.6-3.6
					c0-2,1.6-3.6,3.6-3.6s3.6,1.6,3.6,3.6C10,25.5,8.4,27.2,6.4,27.2z M6.4,20c-2,0-3.6,1.6-3.6,3.6s1.6,3.6,3.6,3.6
					s3.6-1.6,3.6-3.6S8.3,20,6.4,20z"/>
			</g>
		</g>
	</g>
</g>
<g id="rect-1">
	<g>
		<g>
			<g>
				<rect x="3.1" y="16.6" width="5.3" height="0.8"/>
			</g>
		</g>
	</g>
</g>
<g id="rect-2">
	<g>
		<g>
			<g>
				<rect x="3.1" y="15.1" width="5.3" height="0.8"/>
			</g>
		</g>
	</g>
</g>
<g id="rect-3">
	<g>
		<g>
			<g>
				<rect x="3.1" y="13.7" width="5.3" height="0.8"/>
			</g>
		</g>
	</g>
</g>
</svg>
