<?xml version="1.0" encoding="utf-8"?>
<!-- Generator: Adobe Illustrator 25.1.0, SVG Export Plug-In . SVG Version: 6.00 Build 0)  -->
<svg version="1.1" id="Capa_1" xmlns="http://www.w3.org/2000/svg" xmlns:xlink="http://www.w3.org/1999/xlink" x="0px" y="0px"
	 viewBox="0 0 211 35" style="enable-background:new 0 0 211 35;" xml:space="preserve">
<style type="text/css">
	.st0{fill:#FFFFFF;}
	.st1{fill:#FF0000;}
</style>
<g>
	<polygon class="st1" points="28,15.9 30.2,14.7 20,7.9 17.7,7.9 11.3,18.6 17.7,22.7 15.9,32.7 18.2,33 20.6,21.3 16.7,18.7 
		20.6,12.3 	"/>
	<path class="st1" d="M18.2,3.3c0,1.7,1.4,3.1,3.2,3.1s3.2-1.4,3.2-3.1c0-0.1,0-0.2,0-0.3h2.4l-1-1.5h-1.4c-0.2-0.2-1.6-1.5-3.3-1.4
		c-1,0.1-1.9,0.6-2.7,1.6c0,0-0.3,0.4-0.2,0.7c0,0.1,0.1,0.2,0.1,0.3C18.3,2.9,18.2,3.1,18.2,3.3z"/>
	<path class="st1" d="M29.5,19.9c-4.1,0-7.5,3.4-7.5,7.5c0,4.1,3.4,7.5,7.5,7.5s7.5-3.4,7.5-7.5C37,23.3,33.6,19.9,29.5,19.9z
		 M29.5,32.5c-2.8,0-5.1-2.3-5.1-5.1c0-2.8,2.3-5.1,5.1-5.1c2.8,0,5.1,2.3,5.1,5.1C34.6,30.2,32.3,32.5,29.5,32.5z"/>
	<path class="st1" d="M7.5,19.9c-4.1,0-7.5,3.4-7.5,7.5c0,4.1,3.4,7.5,7.5,7.5s7.5-3.4,7.5-7.5C15,23.3,11.6,19.9,7.5,19.9z
		 M7.5,32.5c-2.8,0-5.1-2.3-5.1-5.1c0-2.8,2.3-5.1,5.1-5.1c2.8,0,5.1,2.3,5.1,5.1C12.6,30.2,10.3,32.5,7.5,32.5z"/>
	<rect x="2.9" y="17.6" class="st1" width="7.5" height="1.2"/>
	<rect x="2.9" y="15.5" class="st1" width="7.5" height="1.2"/>
	<rect x="2.9" y="13.5" class="st1" width="7.5" height="1.2"/>
	<polygon points="47.9,2.9 43,2.9 43,34.4 56.1,34.4 56.1,29.9 47.9,29.9 	"/>
	<path d="M65.4,2.5c-2.4,0-4.3,0.7-5.6,2.1c-1.3,1.4-1.9,3.3-1.9,5.9v16.6c0,2.5,0.6,4.5,1.9,5.9c1.3,1.4,3.2,2.1,5.6,2.1
		s4.3-0.7,5.6-2.1s1.9-3.3,1.9-5.9V10.4c0-2.5-0.6-4.5-1.9-5.9C69.7,3.2,67.9,2.5,65.4,2.5z M68,27.3c0,2.1-0.9,3.1-2.6,3.1
		c-1.7,0-2.6-1-2.6-3.1V10.1C62.9,8,63.7,7,65.4,7c1.7,0,2.6,1,2.6,3.1V27.3z"/>
	<path d="M84.7,16.8c-1.6-1.4-2.7-2.6-3.4-3.6c-0.6-1-0.9-2.1-0.9-3.2c0-2,0.8-3,2.5-3c0.8,0,1.4,0.2,1.8,0.7s0.6,1.3,0.6,2.4v1.6
		h4.7v-1.3c0-2.5-0.6-4.5-1.8-5.9c-1.2-1.4-3-2-5.4-2c-2.4,0-4.2,0.7-5.5,2c-1.3,1.4-1.9,3.3-1.9,5.8c0,1.8,0.4,3.5,1.2,4.9
		c0.8,1.5,2.2,3.1,4.3,4.9c1.6,1.4,2.7,2.6,3.3,3.6s0.9,2.2,0.9,3.5c0,1.1-0.2,1.9-0.7,2.4c-0.4,0.5-1.1,0.7-1.9,0.7
		c-1.7,0-2.6-1-2.6-3.1v-2.2h-4.7v1.8c0,2.6,0.6,4.5,1.8,5.9s3,2,5.4,2c2.4,0,4.3-0.7,5.6-2.1c1.3-1.4,1.9-3.4,1.9-5.9
		c0-2-0.4-3.7-1.2-5.2C88.2,20.2,86.8,18.6,84.7,16.8z"/>
	<path d="M107.5,2.9h-7.3v31.5h5V21.6h2.3c2.5,0,4.3-0.7,5.5-2c1.2-1.3,1.8-3.3,1.8-5.8v-3.1c0-2.5-0.6-4.5-1.8-5.8
		C111.8,3.6,110,2.9,107.5,2.9z M109.9,14.1c0,1.1-0.2,1.8-0.6,2.3c-0.4,0.5-1,0.7-1.8,0.7h-2.3V7.4h2.3c0.8,0,1.4,0.2,1.8,0.7
		c0.4,0.5,0.6,1.2,0.6,2.3V14.1z"/>
	<polygon points="117.6,34.4 131.1,34.4 131.1,29.9 122.5,29.9 122.5,20.2 129.3,20.2 129.3,15.7 122.5,15.7 122.5,7.4 131.1,7.4 
		131.1,2.9 117.6,2.9 	"/>
	<path d="M141.5,2.9h-7.6v31.5h7.6c2.5,0,4.3-0.7,5.5-2c1.2-1.3,1.8-3.3,1.8-5.8V10.7c0-2.5-0.6-4.5-1.8-5.8
		C145.8,3.6,143.9,2.9,141.5,2.9z M143.9,26.9c0,1.1-0.2,1.9-0.7,2.3c-0.4,0.5-1.1,0.7-1.9,0.7h-2.5V7.4h2.5c0.8,0,1.4,0.2,1.9,0.7
		c0.4,0.5,0.7,1.3,0.7,2.3V26.9z"/>
	<rect x="152.2" y="2.9" width="5" height="31.5"/>
	<path d="M168.4,2.9h-7.6v31.5h7.6c2.5,0,4.3-0.7,5.5-2c1.2-1.3,1.8-3.3,1.8-5.8V10.7c0-2.5-0.6-4.5-1.8-5.8
		C172.7,3.6,170.9,2.9,168.4,2.9z M170.8,26.9c0,1.1-0.2,1.9-0.7,2.3c-0.4,0.5-1.1,0.7-1.9,0.7h-2.5V7.4h2.5c0.8,0,1.4,0.2,1.9,0.7
		c0.4,0.5,0.7,1.3,0.7,2.3V26.9z"/>
	<path d="M186.3,2.5c-2.4,0-4.3,0.7-5.6,2.1c-1.3,1.4-1.9,3.3-1.9,5.9v16.6c0,2.5,0.6,4.5,1.9,5.9s3.2,2.1,5.6,2.1s4.3-0.7,5.6-2.1
		c1.3-1.4,1.9-3.3,1.9-5.9V10.4c0-2.5-0.6-4.5-1.9-5.9C190.5,3.2,188.7,2.5,186.3,2.5z M188.8,27.3c0,2.1-0.9,3.1-2.6,3.1
		s-2.6-1-2.6-3.1V10.1c0-2.1,0.9-3.1,2.6-3.1s2.6,1,2.6,3.1V27.3z"/>
	<path d="M209.8,21.7c-0.8-1.5-2.2-3.1-4.3-4.9c-1.6-1.4-2.7-2.6-3.4-3.6c-0.6-1-0.9-2.1-0.9-3.2c0-2,0.8-3,2.5-3
		c0.8,0,1.4,0.2,1.8,0.7c0.4,0.5,0.6,1.3,0.6,2.4v1.6h4.7v-1.3c0-2.5-0.6-4.5-1.8-5.9c-1.2-1.4-3-2-5.4-2c-2.4,0-4.2,0.7-5.5,2
		c-1.3,1.4-1.9,3.3-1.9,5.8c0,1.8,0.4,3.5,1.2,4.9c0.8,1.5,2.2,3.1,4.3,4.9c1.6,1.4,2.7,2.6,3.3,3.6c0.6,1,0.9,2.2,0.9,3.5
		c0,1.1-0.2,1.9-0.7,2.4c-0.4,0.5-1.1,0.7-1.9,0.7c-1.7,0-2.6-1-2.6-3.1v-2.2h-4.7v1.8c0,2.6,0.6,4.5,1.8,5.9s3,2,5.4,2
		c2.4,0,4.3-0.7,5.6-2.1s1.9-3.4,1.9-5.9C211,24.9,210.6,23.2,209.8,21.7z"/>
</g>
</svg>
